<svg width="16" height="16" viewBox="0 0 16 16" fill="none" xmlns="http://www.w3.org/2000/svg">
<path d="M8.00004 10.6667C9.4728 10.6667 10.6667 9.47275 10.6667 7.99999C10.6667 6.52724 9.4728 5.33333 8.00004 5.33333C6.52728 5.33333 5.33337 6.52724 5.33337 7.99999C5.33337 9.47275 6.52728 10.6667 8.00004 10.6667Z" stroke="#94CCFF" stroke-width="1.5" stroke-linecap="round" stroke-linejoin="round"/>
<path d="M10.6667 5.33334V8.66668C10.6667 9.19711 10.8774 9.70582 11.2525 10.0809C11.6276 10.456 12.1363 10.6667 12.6667 10.6667C13.1971 10.6667 13.7059 10.456 14.0809 10.0809C14.456 9.70582 14.6667 9.19711 14.6667 8.66668V8.00001C14.6666 6.49536 14.1575 5.03499 13.2222 3.85636C12.2869 2.67773 10.9804 1.85016 9.51514 1.50821C8.04986 1.16625 6.512 1.33004 5.15161 1.97292C3.79122 2.6158 2.68831 3.69998 2.02222 5.04916C1.35613 6.39834 1.16602 7.93317 1.48283 9.40408C1.79963 10.875 2.6047 12.1955 3.76713 13.1509C4.92957 14.1062 6.381 14.6402 7.88543 14.6661C9.38985 14.692 10.8588 14.2082 12.0534 13.2933" stroke="#94CCFF" stroke-width="1.5" stroke-linecap="round" stroke-linejoin="round"/>
</svg>
