<svg width="24" height="24" viewBox="0 0 24 24" fill="none" xmlns="http://www.w3.org/2000/svg">
<path d="M18.7663 6.23375C18.3753 5.84262 17.9111 5.53234 17.4002 5.32065C16.8893 5.10896 16.3417 5 15.7887 5C15.2357 5 14.6881 5.10896 14.1772 5.32065C13.6663 5.53234 13.2021 5.84262 12.8112 6.23375L11.9998 7.04511L11.1884 6.23375C10.3987 5.44406 9.32768 5.00041 8.21089 5.00041C7.09409 5.00041 6.02303 5.44406 5.23334 6.23375C4.44365 7.02344 4 8.0945 4 9.2113C4 10.3281 4.44365 11.3991 5.23334 12.1888L6.0447 13.0002L11.9998 18.9553L17.9549 13.0002L18.7663 12.1888C19.1574 11.7979 19.4677 11.3337 19.6794 10.8228C19.891 10.3119 20 9.76431 20 9.2113C20 8.65828 19.891 8.11068 19.6794 7.59978C19.4677 7.08888 19.1574 6.6247 18.7663 6.23375V6.23375Z" stroke="#94CCFF" stroke-width="1.5" stroke-linecap="round" stroke-linejoin="round"/>
</svg>
