<svg width="16" height="16" viewBox="0 0 16 16" fill="none" xmlns="http://www.w3.org/2000/svg">
<path d="M12.6667 7.33333H3.33333C2.59695 7.33333 2 7.93028 2 8.66666V13.3333C2 14.0697 2.59695 14.6667 3.33333 14.6667H12.6667C13.403 14.6667 14 14.0697 14 13.3333V8.66666C14 7.93028 13.403 7.33333 12.6667 7.33333Z" stroke="#94CCFF" stroke-width="1.5" stroke-linecap="round" stroke-linejoin="round"/>
<path d="M4.66663 7.33334V4.66667C4.66663 3.78261 5.01782 2.93477 5.64294 2.30965C6.26806 1.68453 7.1159 1.33334 7.99996 1.33334C8.88401 1.33334 9.73186 1.68453 10.357 2.30965C10.9821 2.93477 11.3333 3.78261 11.3333 4.66667V7.33334" stroke="#94CCFF" stroke-width="1.5" stroke-linecap="round" stroke-linejoin="round"/>
</svg>
