<svg width="16" height="16" viewBox="0 0 16 16" fill="none" xmlns="http://www.w3.org/2000/svg">
<path d="M14.6667 11.28V13.28C14.6675 13.4657 14.6294 13.6495 14.555 13.8196C14.4807 13.9897 14.3716 14.1424 14.2348 14.2679C14.0979 14.3934 13.9364 14.489 13.7605 14.5485C13.5847 14.608 13.3983 14.6301 13.2134 14.6133C11.1619 14.3904 9.19137 13.6894 7.46004 12.5667C5.84926 11.5431 4.48359 10.1775 3.46004 8.56667C2.33336 6.82748 1.6322 4.84734 1.41337 2.78667C1.39671 2.60232 1.41862 2.41651 1.4777 2.24109C1.53679 2.06567 1.63175 1.90447 1.75655 1.76775C1.88134 1.63104 2.03324 1.52181 2.20256 1.44702C2.37189 1.37223 2.55493 1.33351 2.74004 1.33334H4.74004C5.06357 1.33016 5.37723 1.44473 5.62254 1.65569C5.86786 1.86666 6.02809 2.15964 6.07337 2.48001C6.15779 3.12005 6.31434 3.74849 6.54004 4.35334C6.62973 4.59196 6.64915 4.85128 6.59597 5.10059C6.5428 5.3499 6.41928 5.57875 6.24004 5.76001L5.39337 6.60667C6.34241 8.2757 7.72434 9.65764 9.39337 10.6067L10.24 9.76001C10.4213 9.58076 10.6501 9.45724 10.8994 9.40407C11.1488 9.3509 11.4081 9.37031 11.6467 9.46001C12.2516 9.68571 12.88 9.84226 13.52 9.92667C13.8439 9.97236 14.1396 10.1355 14.3511 10.385C14.5625 10.6345 14.6748 10.9531 14.6667 11.28Z" stroke="#94CCFF" stroke-width="1.5" stroke-linecap="round" stroke-linejoin="round"/>
</svg>
